<svg width="480" height="246" viewBox="0 0 480 246" fill="none" xmlns="http://www.w3.org/2000/svg">
<path d="M191.071 128L231 173L135 128H191.071Z" fill="white"/>
<path d="M59.7452 20C59.7452 8.9543 68.6995 0 79.7452 0H399.745C410.791 0 419.745 8.95431 419.745 20V120C419.745 131.046 410.791 140 399.745 140H79.7452C68.6995 140 59.7452 131.046 59.7452 120V20Z" fill="white"/>
<path d="M126.506 44.6364V97H115.435V55.1449H115.128L103.137 62.6619V52.8438L116.1 44.6364H126.506ZM171.263 89.0227V52.8182H180.417V89.0227H171.263ZM157.738 75.4972V66.3438H193.942V75.4972H157.738ZM243.998 44.6364V97H232.927V55.1449H232.621L220.629 62.6619V52.8438L233.592 44.6364H243.998ZM275.665 66.8807V57.7784H310.974V66.8807H275.665ZM275.665 83.858V74.7557H310.974V83.858H275.665ZM338.709 97V89.0227L357.349 71.7642C358.934 70.2301 360.263 68.8494 361.337 67.6222C362.428 66.3949 363.255 65.1932 363.817 64.017C364.38 62.8239 364.661 61.5369 364.661 60.1562C364.661 58.6222 364.312 57.3011 363.613 56.1932C362.914 55.0682 361.959 54.2074 360.749 53.6108C359.539 52.9972 358.167 52.6903 356.633 52.6903C355.03 52.6903 353.633 53.0142 352.439 53.6619C351.246 54.3097 350.326 55.2386 349.678 56.4489C349.03 57.6591 348.707 59.0994 348.707 60.7699H338.198C338.198 57.3437 338.974 54.3693 340.525 51.8466C342.076 49.3239 344.249 47.3722 347.045 45.9915C349.84 44.6108 353.062 43.9205 356.709 43.9205C360.459 43.9205 363.724 44.5852 366.502 45.9148C369.297 47.2273 371.471 49.0511 373.022 51.3864C374.573 53.7216 375.349 56.3977 375.349 59.4148C375.349 61.392 374.957 63.3437 374.172 65.2699C373.405 67.196 372.033 69.3352 370.056 71.6875C368.079 74.0227 365.292 76.8267 361.695 80.0994L354.05 87.5909V87.9489H376.039V97H338.709Z" fill="#87CEEB"/>
<path d="M65.7944 211.409H74.3853L79.4734 218.006L83.1041 222.301L91.8228 233.5H82.6183L76.6864 225.983L74.1552 222.403L65.7944 211.409ZM93.0756 202.818C93.0756 208.46 92.0188 213.293 89.9052 217.315C87.8086 221.321 84.945 224.389 81.3143 226.52C77.7006 228.651 73.6012 229.716 69.016 229.716C64.4308 229.716 60.3228 228.651 56.6921 226.52C53.0785 224.372 50.2148 221.295 48.1012 217.29C46.0046 213.267 44.9563 208.443 44.9563 202.818C44.9563 197.176 46.0046 192.352 48.1012 188.347C50.2148 184.324 53.0785 181.247 56.6921 179.116C60.3228 176.986 64.4308 175.92 69.016 175.92C73.6012 175.92 77.7006 176.986 81.3143 179.116C84.945 181.247 87.8086 184.324 89.9052 188.347C92.0188 192.352 93.0756 197.176 93.0756 202.818ZM83.5387 202.818C83.5387 198.847 82.9166 195.497 81.6722 192.77C80.445 190.026 78.7404 187.955 76.5586 186.557C74.3768 185.142 71.8626 184.435 69.016 184.435C66.1694 184.435 63.6552 185.142 61.4734 186.557C59.2915 187.955 57.5785 190.026 56.3342 192.77C55.1069 195.497 54.4933 198.847 54.4933 202.818C54.4933 206.79 55.1069 210.148 56.3342 212.892C57.5785 215.619 59.2915 217.69 61.4734 219.105C63.6552 220.503 66.1694 221.202 69.016 221.202C71.8626 221.202 74.3768 220.503 76.5586 219.105C78.7404 217.69 80.445 215.619 81.6722 212.892C82.9166 210.148 83.5387 206.79 83.5387 202.818ZM126.736 212.483V189.727H135.992V229H127.017V222.02H126.608C125.722 224.219 124.265 226.017 122.236 227.415C120.225 228.812 117.745 229.511 114.796 229.511C112.222 229.511 109.946 228.94 107.969 227.798C106.009 226.639 104.475 224.96 103.367 222.761C102.259 220.545 101.705 217.869 101.705 214.733V189.727H110.961V213.301C110.961 215.79 111.642 217.767 113.006 219.233C114.37 220.699 116.159 221.432 118.375 221.432C119.739 221.432 121.06 221.099 122.338 220.435C123.617 219.77 124.665 218.781 125.483 217.469C126.319 216.139 126.736 214.477 126.736 212.483ZM145.51 229V189.727H154.765V229H145.51ZM150.163 184.153C148.697 184.153 147.436 183.668 146.379 182.696C145.322 181.707 144.794 180.523 144.794 179.142C144.794 177.744 145.322 176.56 146.379 175.588C147.436 174.599 148.697 174.105 150.163 174.105C151.646 174.105 152.907 174.599 153.947 175.588C155.004 176.56 155.532 177.744 155.532 179.142C155.532 180.523 155.004 181.707 153.947 182.696C152.907 183.668 151.646 184.153 150.163 184.153ZM181.414 229.767C177.493 229.767 174.127 228.906 171.314 227.185C168.519 225.463 166.363 223.085 164.846 220.051C163.346 217 162.596 213.489 162.596 209.517C162.596 205.528 163.363 202.009 164.897 198.957C166.431 195.889 168.596 193.503 171.391 191.798C174.203 190.077 177.527 189.216 181.363 189.216C184.55 189.216 187.371 189.804 189.826 190.98C192.297 192.139 194.266 193.784 195.732 195.915C197.198 198.028 198.033 200.5 198.238 203.33H189.391C189.033 201.437 188.181 199.861 186.834 198.599C185.505 197.321 183.723 196.682 181.49 196.682C179.598 196.682 177.936 197.193 176.505 198.216C175.073 199.222 173.956 200.67 173.155 202.562C172.371 204.455 171.979 206.722 171.979 209.364C171.979 212.04 172.371 214.341 173.155 216.267C173.939 218.176 175.039 219.651 176.453 220.69C177.885 221.713 179.564 222.224 181.49 222.224C182.854 222.224 184.073 221.969 185.147 221.457C186.238 220.929 187.15 220.17 187.882 219.182C188.615 218.193 189.118 216.991 189.391 215.577H198.238C198.016 218.355 197.198 220.818 195.783 222.966C194.368 225.097 192.442 226.767 190.005 227.977C187.567 229.17 184.703 229.767 181.414 229.767ZM214.275 216.676L214.25 205.503H215.733L229.846 189.727H240.662L223.301 209.057H221.383L214.275 216.676ZM205.838 229V176.636H215.093V229H205.838ZM230.485 229L217.701 211.128L223.94 204.608L241.556 229H230.485ZM265.098 176.636H276.706L292.252 214.58H292.865L308.411 176.636H320.019V229H310.917V193.026H310.431L295.959 228.847H289.158L274.686 192.949H274.201V229H265.098V176.636ZM341.24 229.793C338.752 229.793 336.51 229.349 334.516 228.463C332.539 227.56 330.971 226.23 329.811 224.474C328.669 222.719 328.098 220.554 328.098 217.98C328.098 215.764 328.507 213.932 329.326 212.483C330.144 211.034 331.26 209.875 332.675 209.006C334.09 208.136 335.684 207.48 337.456 207.037C339.246 206.577 341.096 206.244 343.005 206.04C345.306 205.801 347.172 205.588 348.604 205.401C350.036 205.196 351.076 204.889 351.723 204.48C352.388 204.054 352.721 203.398 352.721 202.511V202.358C352.721 200.432 352.15 198.94 351.007 197.884C349.865 196.827 348.221 196.298 346.073 196.298C343.806 196.298 342.007 196.793 340.678 197.781C339.365 198.77 338.479 199.937 338.019 201.284L329.377 200.057C330.059 197.67 331.184 195.676 332.752 194.074C334.32 192.455 336.238 191.244 338.505 190.443C340.772 189.625 343.277 189.216 346.022 189.216C347.914 189.216 349.797 189.438 351.672 189.881C353.547 190.324 355.26 191.057 356.811 192.08C358.363 193.085 359.607 194.457 360.544 196.196C361.499 197.935 361.976 200.108 361.976 202.716V229H353.078V223.605H352.772C352.209 224.696 351.417 225.719 350.394 226.673C349.388 227.611 348.118 228.369 346.584 228.949C345.067 229.511 343.286 229.793 341.24 229.793ZM343.644 222.991C345.502 222.991 347.113 222.625 348.476 221.892C349.84 221.142 350.888 220.153 351.621 218.926C352.371 217.699 352.746 216.361 352.746 214.912V210.284C352.456 210.523 351.962 210.744 351.263 210.949C350.581 211.153 349.814 211.332 348.962 211.486C348.11 211.639 347.266 211.776 346.431 211.895C345.596 212.014 344.871 212.116 344.257 212.202C342.877 212.389 341.641 212.696 340.55 213.122C339.459 213.548 338.598 214.145 337.968 214.912C337.337 215.662 337.022 216.634 337.022 217.827C337.022 219.531 337.644 220.818 338.888 221.688C340.132 222.557 341.718 222.991 343.644 222.991ZM390.894 189.727V196.886H368.317V189.727H390.894ZM373.891 180.318H383.147V217.188C383.147 218.432 383.334 219.386 383.709 220.051C384.101 220.699 384.613 221.142 385.243 221.381C385.874 221.619 386.573 221.739 387.34 221.739C387.919 221.739 388.448 221.696 388.925 221.611C389.419 221.526 389.794 221.449 390.05 221.381L391.61 228.616C391.115 228.787 390.408 228.974 389.488 229.179C388.584 229.384 387.476 229.503 386.164 229.537C383.846 229.605 381.757 229.256 379.9 228.489C378.042 227.705 376.567 226.494 375.476 224.858C374.402 223.222 373.874 221.176 373.891 218.722V180.318ZM408.734 205.989V229H399.478V176.636H408.529V196.401H408.99C409.91 194.185 411.333 192.437 413.26 191.159C415.203 189.864 417.674 189.216 420.674 189.216C423.402 189.216 425.779 189.787 427.808 190.929C429.836 192.071 431.404 193.741 432.512 195.94C433.637 198.139 434.2 200.824 434.2 203.994V229H424.944V205.426C424.944 202.784 424.262 200.73 422.899 199.264C421.552 197.781 419.66 197.04 417.223 197.04C415.586 197.04 414.12 197.398 412.825 198.114C411.547 198.812 410.541 199.827 409.808 201.156C409.092 202.486 408.734 204.097 408.734 205.989Z" fill="white"/>
</svg>
